<?xml version="1.0" standalone="no"?>
<!DOCTYPE svg PUBLIC "-//W3C//DTD SVG 20010904//EN"
 "http://www.w3.org/TR/2001/REC-SVG-20010904/DTD/svg10.dtd">
<svg version="1.0" xmlns="http://www.w3.org/2000/svg"
 width="279.000000pt" height="279.000000pt" viewBox="0 0 279.000000 279.000000"
 preserveAspectRatio="xMidYMid meet">
<metadata>
Created by potrace 1.11, written by Peter Selinger 2001-2013
</metadata>
<g transform="translate(0.000000,279.000000) scale(0.100000,-0.100000)"
fill="#000000" stroke="none">
<path d="M788 2433 l-598 -345 0 -697 0 -696 193 -110 c105 -60 374 -214 596
-343 241 -139 412 -232 422 -229 10 3 281 157 603 343 l586 339 -2 699 -3 700
-50 29 c-155 92 -1126 648 -1137 651 -7 2 -282 -151 -610 -341z m1055 27 l387
-222 0 -503 0 -503 -106 -61 c-58 -34 -110 -61 -115 -61 -5 0 -10 208 -11 481
l-3 482 -427 245 c-236 135 -428 249 -428 252 0 3 58 37 128 77 l127 71 30
-18 c17 -9 204 -118 418 -240z m-325 -174 l432 -248 0 -129 c0 -71 -2 -129 -4
-129 -3 0 -191 108 -419 240 l-415 240 -430 -249 c-237 -137 -433 -246 -436
-243 -4 3 -6 69 -6 146 l0 141 418 241 c229 133 419 241 423 240 3 0 199 -113
437 -250z m-191 -222 c2 -5 -11 -18 -29 -27 -18 -9 -204 -115 -413 -235 l-380
-219 -5 -501 -5 -501 -125 72 -125 72 -3 482 -2 482 22 15 c13 8 209 122 437
254 l414 239 105 -61 c58 -34 107 -66 109 -72z m1092 65 l121 -71 0 -487 -1
-486 -426 -245 c-234 -135 -429 -246 -434 -248 -13 -5 -214 115 -214 127 0 7
182 117 405 245 l405 233 3 502 c1 282 6 501 11 501 5 0 63 -32 130 -71z
m-743 -256 l274 -158 0 -322 0 -321 -243 -140 c-133 -77 -258 -149 -278 -161
l-35 -21 -275 159 -274 159 -2 323 -3 324 273 157 c149 87 276 158 281 158 5
0 132 -71 282 -157z m-886 -676 l0 -483 430 -248 c237 -137 430 -250 430 -251
0 -9 -252 -146 -263 -143 -7 2 -196 109 -420 238 l-407 235 3 505 2 505 105
62 c58 34 108 62 113 62 4 1 7 -216 7 -482z m1748 -324 l-3 -148 -375 -217
c-206 -120 -393 -227 -416 -239 l-41 -22 -431 249 -432 249 0 132 0 132 178
-103 c97 -56 284 -164 415 -240 131 -76 243 -136 250 -133 7 3 199 113 427
246 228 132 418 241 423 241 4 0 6 -66 5 -147z"/>
</g>
</svg>
